<svg width="124" height="40" viewBox="0 0 124 40" fill="none" xmlns="http://www.w3.org/2000/svg">
<g clip-path="url(#clip0_694_2457)">
<path d="M114.125 3.00293e-07H9.88016C9.50017 3.00293e-07 9.12475 3.00352e-07 8.74576 0.0020003C8.42852 0.0040003 8.11381 0.0098103 7.79352 0.0147003C7.0977 0.0226021 6.40352 0.0816766 5.71701 0.19141C5.03146 0.303533 4.36739 0.514916 3.74725 0.81841C3.12787 1.12447 2.56193 1.52217 2.06995 1.99707C1.57539 2.47064 1.16313 3.01802 0.849038 3.61816C0.534075 4.21711 0.315679 4.85894 0.201392 5.52148C0.0860188 6.18319 0.0239353 6.85252 0.0156989 7.52348C0.00608269 7.83008 0.00506719 8.1377 0 8.44434V31.5586C0.00506719 31.8691 0.00608269 32.1699 0.0156989 32.4805C0.0239379 33.1514 0.0860213 33.8207 0.201392 34.4824C0.315363 35.1453 0.533773 35.7875 0.849038 36.3867C1.16299 36.9849 1.5753 37.5301 2.06995 38.001C2.56006 38.478 3.12637 38.876 3.74725 39.1797C4.36738 39.484 5.03138 39.6966 5.71701 39.8105C6.40364 39.9194 7.09774 39.9785 7.79352 39.9873C8.11381 39.9941 8.42852 39.998 8.74576 39.998C9.12474 40 9.50019 40 9.88016 40H114.125C114.498 40 114.876 40 115.249 39.998C115.564 39.998 115.888 39.9941 116.204 39.9873C116.898 39.9789 117.591 39.9198 118.276 39.8105C118.964 39.6958 119.631 39.4833 120.254 39.1797C120.874 38.8758 121.44 38.4778 121.93 38.001C122.423 37.5282 122.836 36.9835 123.154 36.3867C123.467 35.7871 123.683 35.1449 123.796 34.4824C123.911 33.8206 123.975 33.1515 123.988 32.4805C123.992 32.1699 123.992 31.8691 123.992 31.5586C124 31.1953 124 30.834 124 30.4648V9.53613C124 9.16992 124 8.80664 123.992 8.44434C123.992 8.1377 123.992 7.83008 123.988 7.52344C123.975 6.85242 123.911 6.18324 123.796 5.52144C123.683 4.85928 123.467 4.2175 123.154 3.61812C122.514 2.4152 121.5 1.43603 120.254 0.81832C119.631 0.515568 118.964 0.304241 118.276 0.19132C117.591 0.0811031 116.898 0.0220081 116.204 0.0145603C115.888 0.0096803 115.564 0.0038203 115.249 0.0018703C114.876 -0.0001297 114.498 -0.0001297 114.125 -0.0001297V3.00293e-07Z" fill="black"/>
<path d="M8.75096 39.125C8.43524 39.125 8.12715 39.1211 7.81391 39.1143C7.165 39.1061 6.51761 39.0516 5.87704 38.9512C5.27975 38.8519 4.70113 38.6673 4.16027 38.4033C3.62437 38.1415 3.13559 37.7983 2.71265 37.3867C2.28359 36.98 1.92637 36.5082 1.65516 35.9902C1.38097 35.4688 1.1912 34.9099 1.09249 34.333C0.985885 33.7131 0.928209 33.0863 0.919956 32.458C0.913386 32.2471 0.904785 31.5449 0.904785 31.5449V8.44434C0.904785 8.44434 0.913946 7.75293 0.920007 7.5498C0.92791 6.92248 0.985251 6.29665 1.09154 5.67773C1.19043 5.09925 1.38034 4.53874 1.65469 4.01563C1.9249 3.49794 2.28013 3.02586 2.70661 2.61768C3.13261 2.20562 3.62295 1.8606 4.15976 1.59521C4.69938 1.33209 5.2769 1.14873 5.87299 1.05127C6.51566 0.949832 7.1653 0.894992 7.81646 0.887206L8.75147 0.874996H115.244L116.19 0.887696C116.835 0.895095 117.479 0.949446 118.116 1.05029C118.718 1.14897 119.301 1.33361 119.847 1.59814C120.923 2.13298 121.798 2.97916 122.35 4.01807C122.62 4.53757 122.807 5.0935 122.904 5.66699C123.012 6.29099 123.072 6.92173 123.084 7.5542C123.087 7.8374 123.087 8.1416 123.087 8.44434C123.096 8.81934 123.096 9.17627 123.096 9.53613V30.4648C123.096 30.8281 123.096 31.1826 123.087 31.54C123.087 31.8652 123.087 32.1631 123.083 32.4697C123.071 33.0909 123.012 33.7104 122.906 34.3232C122.81 34.9043 122.621 35.4675 122.347 35.9932C122.074 36.5056 121.718 36.9733 121.294 37.3789C120.871 37.7927 120.381 38.1379 119.844 38.4014C119.3 38.6674 118.717 38.8527 118.116 38.9512C117.475 39.0522 116.828 39.1067 116.179 39.1143C115.875 39.1211 115.557 39.125 115.249 39.125L114.126 39.127L8.75096 39.125Z" fill="white"/>
<path d="M25.9025 19.8904C25.9141 19.0224 26.153 18.1714 26.597 17.4165C27.041 16.6616 27.6756 16.0273 28.4419 15.5727C27.9551 14.9018 27.3129 14.3497 26.5663 13.9602C25.8198 13.5707 24.9894 13.3545 24.1411 13.3289C22.3316 13.1456 20.5773 14.3739 19.6552 14.3739C18.7153 14.3739 17.2956 13.3471 15.7668 13.3775C14.7779 13.4083 13.8142 13.6858 12.9695 14.1829C12.1248 14.6801 11.428 15.3799 10.9469 16.2142C8.86291 19.6962 10.4174 24.8136 12.4137 27.6282C13.4125 29.0064 14.5798 30.5459 16.1072 30.4913C17.6019 30.4315 18.1601 29.5716 19.9643 29.5716C21.7517 29.5716 22.2755 30.4913 23.8339 30.4566C25.4377 30.4315 26.4482 29.0723 27.412 27.681C28.1296 26.699 28.6818 25.6136 29.0482 24.4651C28.1164 24.0848 27.3212 23.4482 26.7618 22.6347C26.2024 21.8212 25.9036 20.8667 25.9025 19.8904Z" fill="black"/>
<path d="M22.9588 11.4774C23.8333 10.4643 24.2642 9.16218 24.1598 7.84751C22.8238 7.98292 21.5897 8.59912 20.7034 9.57333C20.2701 10.0493 19.9382 10.6029 19.7267 11.2027C19.5153 11.8025 19.4284 12.4366 19.471 13.0688C20.1392 13.0755 20.8003 12.9357 21.4045 12.66C22.0086 12.3844 22.5401 11.98 22.9588 11.4774Z" fill="black"/>
<path d="M43.8344 27.1397H38.9295L37.7516 30.4961H35.6741L40.3199 18.0781H42.4784L47.1243 30.4961H45.0113L43.8344 27.1397ZM39.4375 25.5908H43.3255L41.4088 20.1436H41.3551L39.4375 25.5908Z" fill="black"/>
<path d="M57.1579 25.9695C57.1579 28.783 55.5975 30.5906 53.2427 30.5906C52.6462 30.6207 52.0529 30.4881 51.5309 30.208C51.0088 29.9278 50.5791 29.5115 50.2909 29.0066H50.2463V33.491H48.3206V21.4422H50.1846V22.948H50.22C50.5215 22.4456 50.9585 22.0314 51.4845 21.7495C52.0105 21.4677 52.6059 21.3287 53.2072 21.3474C55.5884 21.3474 57.1579 23.1638 57.1579 25.9695ZM55.1786 25.9695C55.1786 24.1365 54.197 22.9314 52.6993 22.9314C51.2279 22.9314 50.2382 24.1619 50.2382 25.9695C50.2382 27.7937 51.2279 29.0154 52.6993 29.0154C54.197 29.0154 55.1785 27.8191 55.1785 25.9695H55.1786Z" fill="black"/>
<path d="M67.4841 25.9695C67.4841 28.783 65.9232 30.5906 63.5684 30.5906C62.9719 30.6207 62.3786 30.4881 61.8566 30.208C61.3345 29.9278 60.9048 29.5115 60.6165 29.0066H60.572V33.491H58.6462V21.4422H60.5102V22.948H60.5457C60.8472 22.4456 61.2842 22.0314 61.8102 21.7495C62.3362 21.4677 62.9316 21.3287 63.5329 21.3474C65.9141 21.3474 67.4841 23.1638 67.4841 25.9695ZM65.5042 25.9695C65.5042 24.1365 64.5226 22.9314 63.025 22.9314C61.5536 22.9314 60.5639 24.1619 60.5639 25.9695C60.5639 27.7937 61.5536 29.0154 63.025 29.0154C64.5226 29.0154 65.5042 27.8191 65.5042 25.9695Z" fill="black"/>
<path d="M74.3077 27.0362C74.4504 28.2676 75.6901 29.0762 77.3841 29.0762C79.0072 29.0762 80.175 28.2676 80.175 27.1572C80.175 26.1934 79.4707 25.6162 77.803 25.2207L76.1353 24.833C73.7724 24.2822 72.6755 23.2158 72.6755 21.4853C72.6755 19.3428 74.6103 17.8711 77.3568 17.8711C80.0769 17.8711 81.9409 19.3428 82.0036 21.4853H80.0596C79.9433 20.2461 78.8817 19.498 77.3304 19.498C75.7791 19.498 74.7176 20.2549 74.7176 21.3564C74.7176 22.2344 75.3956 22.751 77.0542 23.1464L78.4719 23.4824C81.1121 24.0849 82.208 25.1084 82.208 26.9248C82.208 29.248 80.2914 30.7031 77.2413 30.7031C74.3876 30.7031 72.4609 29.2822 72.3364 27.0361L74.3077 27.0362Z" fill="black"/>
<path d="M86.3661 19.3006V21.4432H88.1501V22.9148H86.3661V27.9061C86.3661 28.6814 86.7233 29.0428 87.5076 29.0428C87.7194 29.0392 87.9308 29.0249 88.141 28.9998V30.4627C87.7884 30.5262 87.4301 30.555 87.0714 30.5486C85.172 30.5486 84.4312 29.8601 84.4312 28.1043V22.9148H83.0671V21.4432H84.4312V19.3006H86.3661Z" fill="black"/>
<path d="M89.1821 25.9705C89.1821 23.1219 90.9206 21.3318 93.6317 21.3318C96.3518 21.3318 98.0822 23.1218 98.0822 25.9705C98.0822 28.827 96.3609 30.6092 93.6317 30.6092C90.9034 30.6092 89.1821 28.8269 89.1821 25.9705ZM96.12 25.9705C96.12 24.0164 95.1921 22.8631 93.6316 22.8631C92.0712 22.8631 91.1433 24.0252 91.1433 25.9705C91.1433 27.9324 92.0712 29.077 93.6316 29.077C95.1921 29.077 96.12 27.9324 96.12 25.9705H96.12Z" fill="black"/>
<path d="M99.6704 21.4421H101.507V22.9831H101.552C101.676 22.5018 101.968 22.0765 102.379 21.7786C102.79 21.4807 103.295 21.3284 103.808 21.3473C104.03 21.3466 104.252 21.3699 104.468 21.4167V23.155C104.188 23.0724 103.896 23.0344 103.603 23.0427C103.323 23.0317 103.044 23.0793 102.785 23.1822C102.526 23.2851 102.294 23.4408 102.103 23.6387C101.912 23.8366 101.768 24.072 101.681 24.3286C101.593 24.5853 101.564 24.8572 101.596 25.1257V30.4958H99.6704L99.6704 21.4421Z" fill="black"/>
<path d="M113.347 27.8377C113.088 29.4812 111.429 30.6092 109.307 30.6092C106.578 30.6092 104.884 28.8445 104.884 26.0135C104.884 23.1736 106.587 21.3318 109.226 21.3318C111.822 21.3318 113.454 23.0525 113.454 25.7977V26.4344H106.828V26.5467C106.797 26.8799 106.84 27.2155 106.955 27.5314C107.069 27.8472 107.251 28.136 107.49 28.3786C107.729 28.6211 108.018 28.8119 108.339 28.9382C108.66 29.0645 109.005 29.1234 109.352 29.1111C109.807 29.1523 110.263 29.0506 110.654 28.8211C111.044 28.5917 111.347 28.2468 111.518 27.8377L113.347 27.8377ZM106.837 25.1355H111.527C111.544 24.8359 111.497 24.5361 111.389 24.2549C111.28 23.9737 111.113 23.7172 110.897 23.5014C110.681 23.2856 110.421 23.1153 110.133 23.0011C109.846 22.8869 109.537 22.8312 109.226 22.8377C108.912 22.8359 108.602 22.894 108.311 23.0088C108.021 23.1235 107.757 23.2926 107.535 23.5062C107.313 23.7199 107.137 23.9738 107.017 24.2535C106.897 24.5331 106.836 24.8329 106.837 25.1356V25.1355Z" fill="black"/>
<path d="M39.197 8.7313C39.6007 8.70334 40.0058 8.7622 40.3832 8.90364C40.7605 9.04507 41.1005 9.26555 41.3789 9.54918C41.6572 9.8328 41.8668 10.1725 41.9926 10.5438C42.1184 10.915 42.1572 11.3086 42.1063 11.6961C42.1063 13.6024 41.0387 14.6981 39.197 14.6981H36.9636V8.7313H39.197ZM37.924 13.8543H39.0897C39.3782 13.8709 39.6669 13.8253 39.9348 13.7207C40.2027 13.6161 40.4431 13.4551 40.6384 13.2496C40.8337 13.044 40.9791 12.799 41.0639 12.5324C41.1488 12.2657 41.1709 11.9842 41.1288 11.7083C41.1679 11.4335 41.1435 11.1537 41.0573 10.889C40.9712 10.6244 40.8255 10.3814 40.6306 10.1774C40.4357 9.97351 40.1965 9.8137 39.9301 9.70946C39.6637 9.60523 39.3767 9.55914 39.0897 9.57451H37.924V13.8543Z" fill="black"/>
<path d="M43.1911 12.4455C43.1617 12.1496 43.1968 11.851 43.2941 11.5689C43.3913 11.2868 43.5486 11.0275 43.7557 10.8075C43.9629 10.5875 44.2155 10.4118 44.4972 10.2915C44.7789 10.1712 45.0835 10.1091 45.3916 10.1091C45.6996 10.1091 46.0042 10.1712 46.2859 10.2915C46.5676 10.4118 46.8202 10.5875 47.0274 10.8075C47.2346 11.0275 47.3918 11.2868 47.489 11.5689C47.5863 11.851 47.6214 12.1496 47.592 12.4455C47.6219 12.7417 47.5873 13.0407 47.4903 13.3232C47.3933 13.6057 47.2361 13.8655 47.0289 14.086C46.8217 14.3064 46.5689 14.4825 46.2869 14.603C46.005 14.7236 45.7 14.7858 45.3916 14.7858C45.0831 14.7858 44.7781 14.7236 44.4962 14.603C44.2142 14.4825 43.9614 14.3064 43.7542 14.086C43.547 13.8655 43.3898 13.6057 43.2928 13.3232C43.1958 13.0407 43.1612 12.7417 43.1911 12.4455ZM46.6448 12.4455C46.6448 11.4694 46.1905 10.8986 45.3931 10.8986C44.5926 10.8986 44.1423 11.4694 44.1423 12.4455C44.1423 13.4294 44.5927 13.9958 45.3931 13.9958C46.1905 13.9958 46.6449 13.4254 46.6449 12.4455H46.6448Z" fill="black"/>
<path d="M53.4421 14.6981H52.4868L51.5224 11.3817H51.4495L50.4892 14.6981H49.543L48.2568 10.1952H49.1909L50.0267 13.6312H50.0956L51.0549 10.1952H51.9383L52.8976 13.6312H52.9705L53.8023 10.1952H54.7232L53.4421 14.6981Z" fill="black"/>
<path d="M55.8052 10.1949H56.6916V10.9102H56.7605C56.8772 10.6533 57.0741 10.4379 57.3237 10.2941C57.5733 10.1503 57.8632 10.0852 58.1529 10.1079C58.3799 10.0915 58.6079 10.1245 58.8199 10.2046C59.0319 10.2847 59.2226 10.4098 59.3777 10.5706C59.5328 10.7315 59.6484 10.9239 59.716 11.1338C59.7835 11.3436 59.8013 11.5654 59.768 11.7827V14.6977H58.8471V12.0059C58.8471 11.2823 58.5213 10.9224 57.8402 10.9224C57.6861 10.9155 57.5322 10.9408 57.3891 10.9966C57.2461 11.0524 57.1172 11.1375 57.0114 11.2459C56.9056 11.3542 56.8253 11.4834 56.776 11.6246C56.7268 11.7657 56.7097 11.9154 56.726 12.0635V14.6978H55.8052L55.8052 10.1949Z" fill="black"/>
<path d="M61.2351 8.4374H62.156V14.6981H61.2351V8.4374Z" fill="black"/>
<path d="M63.4359 12.444C63.4066 12.148 63.4417 11.8495 63.539 11.5674C63.6362 11.2853 63.7935 11.0259 64.0007 10.806C64.2079 10.586 64.4605 10.4102 64.7422 10.2899C65.0239 10.1696 65.3286 10.1075 65.6367 10.1075C65.9447 10.1075 66.2494 10.1696 66.5311 10.2899C66.8128 10.4102 67.0654 10.586 67.2726 10.806C67.4798 11.0259 67.6371 11.2853 67.7343 11.5674C67.8316 11.8495 67.8667 12.148 67.8374 12.444C67.8672 12.7402 67.8325 13.0392 67.7355 13.3217C67.6385 13.6042 67.4813 13.8641 67.2741 14.0845C67.0668 14.3049 66.8141 14.481 66.5321 14.6015C66.2501 14.7221 65.9451 14.7843 65.6367 14.7843C65.3282 14.7843 65.0232 14.7221 64.7412 14.6015C64.4592 14.481 64.2065 14.3049 63.9992 14.0845C63.792 13.8641 63.6348 13.6042 63.5378 13.3217C63.4408 13.0392 63.4061 12.7402 63.4359 12.444ZM66.8897 12.444C66.8897 11.4679 66.4353 10.8971 65.6379 10.8971C64.8375 10.8971 64.3872 11.4679 64.3872 12.444C64.3872 13.4279 64.8375 13.9943 65.6379 13.9943C66.4353 13.9943 66.8897 13.424 66.8897 12.444H66.8897Z" fill="black"/>
<path d="M68.8071 13.4255C68.8071 12.6149 69.4325 12.1477 70.5426 12.0812L71.8065 12.0109V11.6223C71.8065 11.1467 71.4807 10.8781 70.8513 10.8781C70.3372 10.8781 69.981 11.0603 69.8788 11.3786H68.9873C69.0814 10.6052 69.8353 10.1091 70.8938 10.1091C72.0636 10.1091 72.7234 10.6711 72.7234 11.6223V14.6989H71.8369V14.0661H71.764C71.6162 14.2931 71.4085 14.4782 71.1623 14.6024C70.916 14.7266 70.64 14.7855 70.3625 14.7731C70.1666 14.7928 69.9686 14.7726 69.7813 14.7139C69.594 14.6552 69.4215 14.5593 69.275 14.4323C69.1284 14.3053 69.0111 14.1502 68.9305 13.9767C68.8499 13.8033 68.8079 13.6155 68.8071 13.4255ZM71.8065 13.0407V12.6643L70.6671 12.7346C70.0245 12.7761 69.7331 12.987 69.7331 13.384C69.7331 13.7892 70.0974 14.0251 70.5983 14.0251C70.7451 14.0394 70.8934 14.0251 71.0343 13.983C71.1752 13.9409 71.3059 13.8719 71.4187 13.7801C71.5314 13.6882 71.6238 13.5755 71.6905 13.4484C71.7571 13.3214 71.7966 13.1828 71.8065 13.0407Z" fill="black"/>
<path d="M73.9336 12.4447C73.9336 11.0219 74.6915 10.1205 75.8705 10.1205C76.1621 10.1076 76.4515 10.175 76.7049 10.3148C76.9583 10.4547 77.1651 10.6614 77.3014 10.9105H77.3702V8.4374H78.291V14.6981H77.4086V13.9867H77.3358C77.189 14.2342 76.9749 14.4382 76.7166 14.5767C76.4584 14.7152 76.1657 14.7829 75.8705 14.7723C74.6835 14.7724 73.9336 13.871 73.9336 12.4447ZM74.8849 12.4447C74.8849 13.3998 75.3514 13.9745 76.1316 13.9745C76.9077 13.9745 77.3874 13.3915 77.3874 12.4486C77.3874 11.5102 76.9027 10.9189 76.1316 10.9189C75.3564 10.9189 74.8848 11.4975 74.8848 12.4447H74.8849Z" fill="black"/>
<path d="M82.101 12.4455C82.0717 12.1496 82.1067 11.851 82.204 11.5689C82.3012 11.2868 82.4585 11.0275 82.6657 10.8075C82.8728 10.5875 83.1254 10.4118 83.4071 10.2915C83.6888 10.1712 83.9934 10.1091 84.3015 10.1091C84.6095 10.1091 84.9141 10.1712 85.1958 10.2915C85.4775 10.4118 85.7301 10.5875 85.9373 10.8075C86.1445 11.0275 86.3017 11.2868 86.399 11.5689C86.4962 11.851 86.5313 12.1496 86.5019 12.4455C86.5318 12.7417 86.4972 13.0407 86.4002 13.3232C86.3032 13.6057 86.146 13.8655 85.9388 14.086C85.7316 14.3064 85.4788 14.4825 85.1968 14.603C84.9149 14.7236 84.6099 14.7858 84.3015 14.7858C83.9931 14.7858 83.6881 14.7236 83.4061 14.603C83.1241 14.4825 82.8714 14.3064 82.6641 14.086C82.4569 13.8655 82.2997 13.6057 82.2027 13.3232C82.1058 13.0407 82.0711 12.7417 82.101 12.4455ZM85.5548 12.4455C85.5548 11.4694 85.1004 10.8986 84.303 10.8986C83.5025 10.8986 83.0522 11.4694 83.0522 12.4455C83.0522 13.4294 83.5026 13.9958 84.303 13.9958C85.1004 13.9958 85.5548 13.4254 85.5548 12.4455Z" fill="black"/>
<path d="M87.7375 10.1949H88.624V10.9102H88.6928C88.8096 10.6533 89.0065 10.4379 89.2561 10.2941C89.5057 10.1503 89.7955 10.0852 90.0853 10.1079C90.3123 10.0915 90.5403 10.1245 90.7523 10.2046C90.9643 10.2847 91.1549 10.4098 91.31 10.5706C91.4651 10.7315 91.5808 10.9239 91.6483 11.1338C91.7159 11.3436 91.7337 11.5654 91.7003 11.7827V14.6977H90.7795V12.0059C90.7795 11.2823 90.4536 10.9224 89.7726 10.9224C89.6184 10.9155 89.4646 10.9408 89.3215 10.9966C89.1784 11.0524 89.0496 11.1375 88.9438 11.2459C88.8379 11.3542 88.7576 11.4834 88.7084 11.6246C88.6591 11.7657 88.6421 11.9154 88.6584 12.0635V14.6978H87.7375V10.1949Z" fill="black"/>
<path d="M96.9038 9.07412V10.2157H97.9148V10.9643H96.9038V13.2797C96.9038 13.7514 97.1052 13.9579 97.5636 13.9579C97.681 13.9575 97.7982 13.9507 97.9148 13.9374V14.6776C97.7494 14.7062 97.5818 14.7214 97.4139 14.723C96.3898 14.723 95.982 14.3754 95.982 13.5072V10.9642H95.2412V10.2157H95.982V9.07412H96.9038Z" fill="black"/>
<path d="M99.1726 8.4374H100.085V10.9188H100.158C100.281 10.6595 100.483 10.4429 100.738 10.2986C100.992 10.1542 101.287 10.0892 101.581 10.1122C101.807 10.1003 102.033 10.1367 102.242 10.2188C102.452 10.3008 102.64 10.4265 102.794 10.5868C102.947 10.7472 103.062 10.9382 103.13 11.1464C103.198 11.3545 103.218 11.5746 103.188 11.7909V14.6981H102.266V12.0101C102.266 11.2909 101.919 10.9266 101.268 10.9266C101.11 10.9141 100.951 10.9351 100.802 10.9882C100.653 11.0412 100.518 11.1251 100.406 11.2338C100.294 11.3425 100.208 11.4736 100.154 11.6177C100.1 11.7618 100.079 11.9156 100.094 12.0682V14.6981H99.1726L99.1726 8.4374Z" fill="black"/>
<path d="M108.557 13.4816C108.432 13.8931 108.161 14.2491 107.792 14.4873C107.422 14.7254 106.977 14.8306 106.535 14.7843C106.228 14.7922 105.923 14.7353 105.64 14.6178C105.358 14.5003 105.105 14.3249 104.9 14.1037C104.695 13.8826 104.542 13.621 104.453 13.3372C104.363 13.0534 104.338 12.7541 104.38 12.4601C104.339 12.1652 104.364 11.8653 104.454 11.5806C104.543 11.296 104.695 11.0332 104.899 10.8101C105.103 10.587 105.355 10.4089 105.636 10.2877C105.918 10.1665 106.223 10.105 106.531 10.1076C107.83 10.1076 108.613 10.9636 108.613 12.3776V12.6877H105.318V12.7375C105.304 12.9027 105.325 13.069 105.381 13.2258C105.437 13.3825 105.527 13.5263 105.644 13.6477C105.761 13.7692 105.903 13.8657 106.061 13.9311C106.219 13.9965 106.389 14.0293 106.561 14.0275C106.781 14.053 107.004 14.0147 107.202 13.9175C107.4 13.8203 107.563 13.6686 107.671 13.4816L108.557 13.4816ZM105.318 12.0304H107.675C107.686 11.8793 107.665 11.7275 107.612 11.5848C107.56 11.4421 107.476 11.3116 107.368 11.2017C107.26 11.0919 107.129 11.0051 106.984 10.9469C106.839 10.8887 106.683 10.8605 106.526 10.8639C106.367 10.862 106.209 10.8909 106.061 10.9488C105.914 11.0067 105.78 11.0926 105.667 11.2013C105.555 11.31 105.466 11.4394 105.406 11.5818C105.346 11.7242 105.316 11.8767 105.318 12.0304H105.318Z" fill="black"/>
</g>
<defs>
<clipPath id="clip0_694_2457">
<rect width="124" height="40" fill="white"/>
</clipPath>
</defs>
</svg>
