<svg width="124" height="38" viewBox="0 0 124 38" fill="none" xmlns="http://www.w3.org/2000/svg">
<path d="M119.234 37.9055H4.67396C2.15364 37.9055 0.0915527 35.7786 0.0915527 33.1791V4.82093C0.0915527 2.22142 2.15364 0.0945587 4.67396 0.0945587H119.234C121.755 0.0945587 123.817 2.22142 123.817 4.82093V33.1791C123.817 35.7786 121.755 37.9055 119.234 37.9055Z" fill="white"/>
<path d="M119.234 0.0945587H4.67396C2.15364 0.0945587 0.0915527 2.22142 0.0915527 4.82093V33.1791C0.0915527 35.7786 2.15364 37.9055 4.67396 37.9055H119.234C121.755 37.9055 123.817 35.7786 123.817 33.1791V4.82093C123.817 2.22142 121.755 0.0945587 119.234 0.0945587ZM119.234 0.850777C121.357 0.850777 123.083 2.63205 123.083 4.82093V33.1791C123.083 35.3684 121.357 37.1497 119.234 37.1497H4.67396C2.55176 37.1497 0.824738 35.3684 0.824738 33.1791V4.82093C0.824738 2.63205 2.55176 0.850777 4.67396 0.850777H119.234Z" fill="black"/>
<path d="M43.5497 9.77728C43.5497 10.5692 43.3224 11.1999 42.867 11.6704C42.3497 12.2298 41.6755 12.5097 40.8468 12.5097C40.0531 12.5097 39.3783 12.2261 38.8233 11.6582C38.2674 11.0906 37.99 10.3869 37.99 9.54721C37.99 8.70714 38.2674 8.00376 38.8233 7.43584C39.3783 6.8683 40.0531 6.58434 40.8468 6.58434C41.2406 6.58434 41.6176 6.66374 41.9756 6.82217C42.3336 6.98098 42.6207 7.19177 42.8355 7.45579L42.3522 7.95461C41.9881 7.50598 41.4869 7.28186 40.8468 7.28186C40.2679 7.28186 39.7674 7.49161 39.345 7.91141C38.9225 8.33168 38.7114 8.87663 38.7114 9.54721C38.7114 10.2178 38.9225 10.7627 39.345 11.183C39.7674 11.6028 40.2679 11.8126 40.8468 11.8126C41.4608 11.8126 41.9727 11.6017 42.3826 11.1793C42.6486 10.9041 42.8025 10.5217 42.8437 10.0305H40.8468V9.34927H43.5114C43.5372 9.49739 43.5497 9.63956 43.5497 9.77728Z" fill="black"/>
<path d="M43.5498 9.77738H43.4582C43.4575 10.5513 43.2383 11.1524 42.8023 11.6036L42.8012 11.6044L42.8009 11.6052C42.3 12.1453 41.6563 12.4141 40.8468 12.4153C40.0743 12.4141 39.4278 12.1424 38.8879 11.5915C38.3492 11.0394 38.0827 10.3655 38.0817 9.5473C38.0827 8.72869 38.3492 8.05518 38.8879 7.50352C39.4278 6.95224 40.0743 6.6801 40.8468 6.67896C41.2288 6.67896 41.5926 6.75581 41.9395 6.90904C42.2867 7.0634 42.561 7.26569 42.7654 7.51685L42.8356 7.45588L42.7708 7.38905L42.2875 7.88825L42.3523 7.9547L42.4228 7.8942C42.0419 7.42336 41.5071 7.18601 40.8468 7.18742C40.2466 7.18667 39.7185 7.40786 39.2817 7.84363C38.8407 8.28082 38.6191 8.8564 38.6198 9.5473C38.6191 10.2382 38.8407 10.8138 39.2817 11.251C39.7185 11.6867 40.2466 11.9079 40.8468 11.9072C41.4812 11.9083 42.0219 11.6864 42.4475 11.2462C42.7318 10.9523 42.8929 10.545 42.9351 10.0387L42.9437 9.93609H40.9385V9.44389H43.5115V9.34936L43.4212 9.366C43.4464 9.5093 43.4582 9.64551 43.4582 9.77738H43.5498H43.6415C43.6415 9.6337 43.6286 9.48604 43.6017 9.33244L43.5881 9.25483H40.7552V10.0306V10.1251H42.8438V10.0306L42.7525 10.0225C42.7121 10.4982 42.5653 10.8563 42.3179 11.1126C41.9241 11.5172 41.4408 11.717 40.8468 11.7181C40.2894 11.7174 39.8165 11.5194 39.4088 11.1151C39.005 10.7123 38.8041 10.1979 38.8031 9.5473C38.8041 8.89667 39.005 8.38234 39.4088 7.97947C39.8165 7.57518 40.2894 7.37724 40.8468 7.37648C41.4666 7.37799 41.9345 7.58916 42.2822 8.01567L42.3466 8.0947L42.9004 7.52271L42.9598 7.46146L42.9057 7.39529C42.6805 7.11842 42.3806 6.89864 42.0118 6.73549C41.6424 6.57186 41.2525 6.48991 40.8468 6.48991C40.0321 6.48915 39.329 6.78455 38.7586 7.36911C38.1862 7.95253 37.8977 8.68587 37.8984 9.5473C37.8977 10.4083 38.1862 11.1421 38.759 11.7259C39.329 12.31 40.0321 12.6051 40.8468 12.6043C41.6953 12.6051 42.3992 12.3144 42.9333 11.7358L42.8671 11.6705L42.9318 11.7373C43.4066 11.248 43.6421 10.5871 43.6415 9.77738H43.5498Z" fill="black"/>
<path d="M47.7741 7.40824H45.2699V9.20653H47.5282V9.88807H45.2699V11.6864H47.7741V12.3831H44.564V6.71148H47.7741V7.40824Z" fill="black"/>
<path d="M47.774 7.40821V7.31369H45.1781V9.30103H47.4364V9.79323L45.1781 9.79352V11.7809H47.6823V12.2886H44.6555V6.80598H47.6823V7.40821H47.774V7.31369V7.40821H47.8656V6.71145V6.61692H44.4722V12.4776H47.8656V11.6863V11.5918H45.3614V9.98257H47.6197V9.2065V9.11197H45.3614V7.50274H47.8656V7.40821H47.774Z" fill="black"/>
<path d="M50.7537 12.3831H50.0466V7.40824H48.5107V6.71147H52.2895V7.40824H50.7537V12.3831Z" fill="black"/>
<path d="M50.7537 12.3831V12.2886H50.1383V7.31369H48.6025V6.80598H52.1979V7.31369H50.6621V12.3831H50.7537V12.2886V12.3831H50.8454V7.50274H52.3812V6.71145V6.61693H48.4192V7.40822V7.50274H49.955V12.4776H50.7537H50.8454V12.3831H50.7537Z" fill="black"/>
<path d="M55.0234 12.3831V6.71148H55.7298V12.3831H55.0234Z" fill="black"/>
<path d="M55.0235 12.3831H55.1152V6.80598H55.6382V12.2886H55.0235V12.3831H55.1152H55.0235V12.4776H55.7299H55.8215V6.61693H55.0235H54.9319V12.4776H55.0235V12.3831Z" fill="black"/>
<path d="M58.8641 12.3831H58.1571V7.40824H56.6213V6.71147H60.4V7.40824H58.8641V12.3831Z" fill="black"/>
<path d="M58.864 12.3831V12.2886H58.2486V7.31369H56.7128V6.80598H60.3082V7.31369H58.7724V12.3831H58.864V12.2886V12.3831H58.9556V7.50274H60.4915V6.71145V6.61692H56.5295V7.40821V7.50274H58.0653V12.4776H58.864H58.9556V12.3831H58.864Z" fill="black"/>
<path d="M64.0432 11.1752C64.4502 11.6002 64.9482 11.8126 65.5371 11.8126C66.126 11.8126 66.6243 11.6002 67.0307 11.1752C67.4381 10.7503 67.6422 10.207 67.6422 9.54721C67.6422 8.8874 67.4381 8.34416 67.0307 7.91916C66.6243 7.49417 66.126 7.28186 65.5371 7.28186C64.9482 7.28186 64.4502 7.49417 64.0432 7.91916C63.6368 8.34416 63.4328 8.8874 63.4328 9.54721C63.4328 10.207 63.6368 10.7503 64.0432 11.1752ZM67.5534 11.6501C67.0127 12.2235 66.3404 12.5097 65.5371 12.5097C64.733 12.5097 64.061 12.2235 63.5216 11.6501C62.9806 11.0773 62.7114 10.3762 62.7114 9.54721C62.7114 8.7182 62.9806 8.017 63.5216 7.44435C64.061 6.87085 64.733 6.58434 65.5371 6.58434C66.3362 6.58434 67.0067 6.87236 67.5498 7.44804C68.0922 8.02371 68.3635 8.7234 68.3635 9.54721C68.3635 10.3762 68.0928 11.0773 67.5534 11.6501Z" fill="black"/>
<path d="M64.043 11.1753L63.9779 11.2418C64.4 11.6838 64.9266 11.9083 65.537 11.9072C66.147 11.9083 66.6743 11.6838 67.0957 11.2418C67.5206 10.7994 67.7343 10.227 67.7337 9.5473C67.7343 8.86755 67.5206 8.29519 67.0957 7.8528C66.6743 7.41079 66.147 7.18629 65.537 7.18742C64.9266 7.18629 64.4 7.41079 63.9779 7.8528C63.554 8.29519 63.3399 8.86755 63.341 9.5473C63.3399 10.227 63.554 10.7994 63.9779 11.2418L64.043 11.1753L64.1082 11.1089C63.7194 10.7008 63.525 10.1875 63.5243 9.5473C63.525 8.90706 63.7194 8.39378 64.1082 7.98571C64.5005 7.57773 64.9691 7.37761 65.537 7.37648C66.1044 7.37761 66.5741 7.57773 66.9654 7.98571C67.3549 8.39378 67.5493 8.90706 67.55 9.5473C67.5493 10.1875 67.3549 10.7008 66.9654 11.1089C66.5741 11.5169 66.1044 11.717 65.537 11.7181C64.9691 11.717 64.5005 11.5169 64.1082 11.1089L64.043 11.1753ZM67.5532 11.6502L67.4877 11.5845C66.9622 12.1398 66.3196 12.4141 65.537 12.4153C64.754 12.4141 64.1114 12.1398 63.5869 11.5845L63.5844 11.5815L63.5869 11.5845C63.0625 11.0272 62.8037 10.3552 62.8029 9.5473C62.8037 8.73937 63.0625 8.06738 63.5869 7.51014C64.1114 6.95479 64.754 6.6801 65.537 6.67896C66.3145 6.6801 66.9557 6.95593 67.4841 7.5142C68.0104 8.074 68.2707 8.74495 68.2718 9.5473C68.2707 10.3552 68.0111 11.0272 67.4877 11.5845L67.5532 11.6502L67.6191 11.7159C68.1747 11.1273 68.4557 10.3973 68.4551 9.5473C68.4557 8.70213 68.1736 7.97361 67.6155 7.38243C67.0571 6.78899 66.3575 6.48887 65.537 6.48991C64.7121 6.48887 64.0105 6.78757 63.4556 7.37875V7.37837C62.8989 7.96727 62.6189 8.69731 62.6196 9.5473C62.6189 10.3973 62.8989 11.1273 63.4556 11.7162L63.458 11.7189L63.4556 11.7159C64.0105 12.307 64.7121 12.6051 65.537 12.6043C66.3614 12.6051 67.0631 12.307 67.6191 11.7159L67.5532 11.6502Z" fill="black"/>
<path d="M69.355 12.3831V6.71147H70.2149L72.8874 11.1236H72.9178L72.8874 10.0306V6.71147H73.5944V12.3831H72.857L70.0609 7.75714H70.0305L70.0609 8.85053V12.3831H69.355Z" fill="black"/>
<path d="M69.3551 12.3831H69.4467V6.80598H70.1641L72.8366 11.2181H72.9179H73.012L72.9791 10.0292V6.80598H73.5029V12.2886H72.9079L70.1119 7.66259H70.0306H69.9365L69.9694 8.85202V12.2886H69.3551V12.3831H69.4467H69.3551V12.4776H70.061H70.1527V8.849L70.1223 7.75456L70.0306 7.75711V7.85164H70.061V7.75711L69.9833 7.8074L72.8062 12.4776H73.5945H73.6862V6.61692H72.8875H72.7958V10.0317L72.8262 11.1262L72.9179 11.1236V11.0291H72.8875V11.1236L72.9652 11.0734L70.2658 6.61692H69.3551H69.2634V12.4776H69.3551V12.3831Z" fill="black"/>
<path d="M98.0964 28.4527H99.8066V16.6357H98.0964V28.4527ZM113.5 20.8924L111.539 26.0157H111.481L109.446 20.8924H107.604L110.655 28.0532L108.915 32.0363H110.7L115.401 20.8924H113.5ZM103.802 27.1106C103.241 27.1106 102.46 26.8218 102.46 26.107C102.46 25.1949 103.433 24.8452 104.273 24.8452C105.025 24.8452 105.378 25.0124 105.835 25.2407C105.702 26.3351 104.789 27.1106 103.802 27.1106ZM104.008 20.6339C102.77 20.6339 101.487 21.1966 100.957 22.4433L102.474 23.0968C102.799 22.4433 103.403 22.2302 104.037 22.2302C104.921 22.2302 105.821 22.7778 105.835 23.7508V23.8722C105.525 23.6898 104.863 23.4162 104.052 23.4162C102.416 23.4162 100.75 24.3434 100.75 26.0766C100.75 27.6578 102.091 28.6765 103.594 28.6765C104.745 28.6765 105.378 28.1444 105.777 27.5212H105.835V28.4332H107.486V23.9025C107.486 21.8048 105.968 20.6339 104.008 20.6339ZM93.4389 22.331H91.0065V18.2804H93.4389C94.7174 18.2804 95.4432 19.3722 95.4432 20.3056C95.4432 21.2214 94.7174 22.331 93.4389 22.331ZM93.3949 16.6357H89.2973V28.4527H91.0065V23.9756H93.3949C95.2902 23.9756 97.1534 22.5603 97.1534 20.3056C97.1534 18.0511 95.2902 16.6357 93.3949 16.6357ZM71.0501 27.1127C69.8687 27.1127 68.8795 26.0925 68.8795 24.6912C68.8795 23.2752 69.8687 22.2395 71.0501 22.2395C72.2165 22.2395 73.1319 23.2752 73.1319 24.6912C73.1319 26.0925 72.2165 27.1127 71.0501 27.1127ZM73.0138 21.5541H72.9547C72.5709 21.0822 71.8323 20.6558 70.9023 20.6558C68.9533 20.6558 67.1669 22.4222 67.1669 24.6912C67.1669 26.9451 68.9533 28.6964 70.9023 28.6964C71.8323 28.6964 72.5709 28.2699 72.9547 27.7829H73.0138V28.3615C73.0138 29.8999 72.2165 30.7222 70.932 30.7222C69.8837 30.7222 69.234 29.9452 68.968 29.2905L67.4769 29.9301C67.9051 30.9961 69.0421 32.3059 70.932 32.3059C72.94 32.3059 74.638 31.0873 74.638 28.1178V20.8994H73.0138V21.5541ZM75.819 28.4527H77.5317V16.6353H75.819V28.4527ZM80.0567 24.5543C80.0123 23.0008 81.2231 22.2091 82.0941 22.2091C82.7738 22.2091 83.3493 22.5592 83.5408 23.0621L80.0567 24.5543ZM85.372 23.2142C85.0475 22.3155 84.0577 20.6558 82.035 20.6558C80.027 20.6558 78.3587 22.2852 78.3587 24.6761C78.3587 26.93 80.0123 28.6964 82.2269 28.6964C84.0138 28.6964 85.0476 27.5695 85.4755 26.9148L84.1466 26.0009C83.704 26.6711 83.0982 27.1127 82.2269 27.1127C81.3559 27.1127 80.7359 26.7014 80.337 25.8946L85.5489 23.671L85.372 23.2142ZM43.8478 21.8893V23.5949H47.8047C47.6866 24.5543 47.3766 25.2547 46.904 25.7421C46.3284 26.3362 45.4277 26.9909 43.8478 26.9909C41.4115 26.9909 39.507 24.9655 39.507 22.4528C39.507 19.9401 41.4115 17.9145 43.8478 17.9145C45.162 17.9145 46.1214 18.4476 46.8302 19.1329L47.9966 17.93C47.0075 16.9551 45.6933 16.2089 43.8478 16.2089C40.5108 16.2089 37.7056 19.0111 37.7056 22.4528C37.7056 25.8946 40.5108 28.6964 43.8478 28.6964C45.6493 28.6964 47.0075 28.0876 48.0704 26.9451C49.1631 25.8182 49.5028 24.2345 49.5028 22.9554C49.5028 22.5592 49.4734 22.194 49.414 21.8893H43.8478ZM54.0014 27.1127C52.82 27.1127 51.8012 26.1076 51.8012 24.6761C51.8012 23.2294 52.82 22.2395 54.0014 22.2395C55.1824 22.2395 56.2013 23.2294 56.2013 24.6761C56.2013 26.1076 55.1824 27.1127 54.0014 27.1127ZM54.0014 20.6558C51.8455 20.6558 50.0884 22.3461 50.0884 24.6761C50.0884 26.9909 51.8455 28.6964 54.0014 28.6964C56.1569 28.6964 57.914 26.9909 57.914 24.6761C57.914 22.3461 56.1569 20.6558 54.0014 20.6558ZM62.5368 27.1127C61.3558 27.1127 60.3369 26.1076 60.3369 24.6761C60.3369 23.2294 61.3558 22.2395 62.5368 22.2395C63.7179 22.2395 64.7367 23.2294 64.7367 24.6761C64.7367 26.1076 63.7179 27.1127 62.5368 27.1127ZM62.5368 20.6558C60.381 20.6558 58.6243 22.3461 58.6243 24.6761C58.6243 26.9909 60.381 28.6964 62.5368 28.6964C64.6924 28.6964 66.4495 26.9909 66.4495 24.6761C66.4495 22.3461 64.6924 20.6558 62.5368 20.6558Z" fill="black"/>
<path d="M9.72344 30.7115L9.65535 30.6442C9.38865 30.3532 9.2312 29.9013 9.2312 29.316V29.4538V8.5481C9.2312 8.5462 9.2312 8.54479 9.2312 8.54327C9.2312 8.54507 9.2312 8.54658 9.2312 8.54847V8.68658C9.2312 8.05287 9.41477 7.5755 9.72234 7.28928L21.0774 19.0007L9.72344 30.7115ZM9.2312 8.54214C9.2312 8.49006 9.23258 8.43948 9.23514 8.38967C9.23258 8.43911 9.2312 8.49006 9.2312 8.54214ZM9.23514 8.3874C9.23514 8.38674 9.23514 8.38598 9.23542 8.38523C9.23514 8.38598 9.23514 8.38674 9.23514 8.3874ZM9.23542 8.38078C9.23542 8.3804 9.23542 8.38003 9.23542 8.37965C9.23542 8.38003 9.23542 8.3804 9.23542 8.38078Z" fill="url(#paint0_linear_694_2492)"/>
<path d="M24.8621 23.0443L24.9484 22.9937L29.4327 20.3658C29.8602 20.1151 30.1451 19.8112 30.2873 19.4896C30.1455 19.8112 29.8605 20.1155 29.4327 20.3662L24.9484 22.9941L24.8621 23.0443ZM24.8632 22.9058L21.0776 19.0007L24.8628 15.0963L29.4327 17.774C30.013 18.1141 30.3388 18.5525 30.3932 19.0003C30.3932 19.0007 30.3932 19.0015 30.3932 19.0021C30.3388 19.449 30.013 19.8877 29.4327 20.2277L24.8632 22.9058Z" fill="url(#paint1_linear_694_2492)"/>
<path d="M10.5331 31.1575C10.2159 31.1575 9.93916 31.0511 9.72333 30.8503L9.7237 30.8499C9.93953 31.0507 10.2167 31.1575 10.5339 31.1575C10.5614 31.1575 10.5893 31.1567 10.6176 31.1553C10.5889 31.1567 10.5606 31.1575 10.5331 31.1575ZM10.5335 31.019C10.2163 31.0194 9.93953 30.9126 9.7237 30.7118V30.7115L21.0776 19.0008L24.8632 22.9059L11.5602 30.7018C11.1922 30.9171 10.8435 31.019 10.5335 31.019ZM9.72049 30.8477C9.70042 30.8289 9.68071 30.8089 9.66138 30.7882L9.72049 30.8477Z" fill="url(#paint2_linear_694_2492)"/>
<path d="M21.0774 19.0007L9.72241 7.28924C9.93824 7.08875 10.2147 6.98241 10.5315 6.98241C10.8423 6.98241 11.1913 7.08469 11.56 7.3003L24.8626 15.0963L21.0774 19.0007ZM24.9482 15.0081L11.56 7.16229C11.1913 6.94658 10.8423 6.8443 10.5315 6.8443C10.53 6.8443 10.529 6.8443 10.5275 6.8443C10.5294 6.8443 10.5307 6.8443 10.5329 6.8443C10.843 6.8443 11.1916 6.9462 11.56 7.16191L24.9482 15.0081Z" fill="url(#paint3_linear_694_2492)"/>
<path d="M10.6175 31.1553C10.9057 31.1382 11.2247 31.036 11.5601 30.8399L24.862 23.0443L11.5601 30.8399C11.225 31.0363 10.9057 31.1382 10.6175 31.1553ZM9.72325 30.8502L9.72041 30.8477C9.72141 30.8484 9.72251 30.8495 9.72325 30.8502ZM9.66129 30.7882L9.65552 30.7823V30.782C9.65772 30.7841 9.65946 30.7863 9.66129 30.7882Z" fill="white"/>
<path d="M24.8621 23.0443L24.9485 22.9937L24.8621 23.0443Z" fill="url(#paint4_linear_694_2492)"/>
<path d="M10.5338 31.1575C10.2166 31.1575 9.93944 31.0507 9.72361 30.8499L9.72325 30.8503C9.72251 30.8495 9.72141 30.8485 9.72041 30.8477L9.66129 30.7882C9.65946 30.7864 9.65772 30.7842 9.65552 30.782L9.72361 30.7118C9.93944 30.9126 10.2162 31.0194 10.5334 31.019C10.8434 31.019 11.1921 30.9171 11.5601 30.7018L24.8631 22.9059L24.9483 22.9938L24.862 23.0444L11.5601 30.84C11.2247 31.036 10.9057 31.1383 10.6175 31.1553C10.5892 31.1567 10.5613 31.1575 10.5338 31.1575Z" fill="url(#paint5_linear_694_2492)"/>
<path d="M9.65535 30.7824C9.38865 30.4913 9.2312 30.0394 9.2312 29.4542V29.4538C9.2312 30.0394 9.38865 30.491 9.65535 30.782V30.7824Z" fill="white"/>
<path d="M9.65535 30.782C9.38865 30.491 9.2312 30.0394 9.2312 29.4538V29.3161C9.2312 29.9013 9.38865 30.3532 9.65535 30.6443L9.72344 30.7115L9.65535 30.782Z" fill="url(#paint6_linear_694_2492)"/>
<path d="M9.65552 30.782L9.72373 30.7115V30.7118L9.65552 30.782Z" fill="url(#paint7_linear_694_2492)"/>
<path d="M30.2871 19.4896C30.3577 19.3301 30.3932 19.1662 30.3932 19.0022C30.3932 19.0019 30.3932 19.0015 30.3932 19.0015C30.3932 19.1658 30.3577 19.3297 30.2871 19.4896Z" fill="white"/>
<path d="M24.9483 22.9938L24.863 22.9059L29.4325 20.2277C30.0128 19.8877 30.3386 19.449 30.3931 19.0022C30.3931 19.1662 30.3576 19.3301 30.2871 19.4896C30.145 19.8112 29.8601 20.1151 29.4325 20.3658L24.9483 22.9938Z" fill="url(#paint8_linear_694_2492)"/>
<path d="M30.3932 19.0007V19.0003C30.3928 18.5059 30.0724 18.0115 29.4326 17.6363L24.9484 15.0083H24.948L24.9484 15.0081L29.4326 17.6359C30.0732 18.0111 30.3939 18.5062 30.3932 19.0007Z" fill="#404040"/>
<path d="M30.3932 19.0004C30.3388 18.5525 30.013 18.1142 29.4326 17.774L24.8628 15.0963L24.948 15.0084H24.9484L29.4326 17.6363C30.0724 18.0115 30.3928 18.5059 30.3932 19.0004Z" fill="url(#paint9_linear_694_2492)"/>
<path d="M9.2312 8.54326C9.2312 8.54288 9.2312 8.54251 9.2312 8.54213C9.2312 8.54251 9.2312 8.54288 9.2312 8.54326ZM9.23514 8.38966C9.23514 8.3889 9.23514 8.38814 9.23514 8.38739C9.23514 8.38814 9.23514 8.3889 9.23514 8.38966ZM9.23542 8.38521C9.23542 8.3837 9.23542 8.38228 9.23542 8.38077C9.23542 8.38228 9.23542 8.3837 9.23542 8.38521ZM9.23542 8.37964C9.28848 7.40856 9.80043 6.84763 10.5246 6.84432C10.2106 6.84621 9.93717 6.95256 9.72308 7.15154V7.15116L9.72051 7.15381C9.69796 7.17479 9.67652 7.197 9.65535 7.21988C9.41477 7.48238 9.263 7.87562 9.23542 8.37964Z" fill="#404040"/>
<path d="M9.2312 8.68657V8.54847C9.2312 8.54658 9.2312 8.54507 9.2312 8.54327C9.2312 8.54289 9.2312 8.54251 9.2312 8.54214C9.2312 8.49005 9.23258 8.4391 9.23514 8.38966C9.23514 8.38891 9.23514 8.38815 9.23514 8.3874C9.23514 8.38673 9.23514 8.38598 9.23542 8.38522C9.23542 8.38371 9.23542 8.38229 9.23542 8.38078C9.23542 8.3804 9.23542 8.38002 9.23542 8.37964C9.263 7.87562 9.41477 7.48239 9.65535 7.21989L9.72234 7.28927C9.41477 7.5755 9.2312 8.05286 9.2312 8.68657ZM9.72051 7.15381L9.72308 7.15117C9.72234 7.1523 9.72124 7.15305 9.72051 7.15381Z" fill="url(#paint10_linear_694_2492)"/>
<path d="M24.8627 15.0963L11.5601 7.30031C11.1914 7.08469 10.8424 6.98241 10.5316 6.98241C10.2148 6.98241 9.93834 7.08875 9.72251 7.28925L9.65552 7.21986C9.67669 7.19699 9.69813 7.17477 9.72068 7.15379C9.72141 7.15303 9.72251 7.15228 9.72325 7.15152C9.93734 6.95254 10.2108 6.8462 10.5248 6.84431C10.5255 6.84431 10.5265 6.84431 10.5276 6.84431C10.5291 6.84431 10.5301 6.84431 10.5316 6.84431C10.8424 6.84431 11.1914 6.94658 11.5601 7.1623L24.9483 15.0081L24.9479 15.0084L24.8627 15.0963Z" fill="url(#paint11_linear_694_2492)"/>
<defs>
<linearGradient id="paint0_linear_694_2492" x1="20.0705" y1="8.32756" x2="4.21406" y2="23.7011" gradientUnits="userSpaceOnUse">
<stop stop-color="#00A0FF"/>
<stop offset="0.00657445" stop-color="#00A1FF"/>
<stop offset="0.2601" stop-color="#00BEFF"/>
<stop offset="0.5122" stop-color="#00D2FF"/>
<stop offset="0.7604" stop-color="#00DFFF"/>
<stop offset="1" stop-color="#00E3FF"/>
</linearGradient>
<linearGradient id="paint1_linear_694_2492" x1="31.1003" y1="19.0013" x2="8.92417" y2="19.0013" gradientUnits="userSpaceOnUse">
<stop stop-color="#FFE000"/>
<stop offset="0.4087" stop-color="#FFBD00"/>
<stop offset="0.7754" stop-color="#FFA500"/>
<stop offset="1" stop-color="#FF9C00"/>
</linearGradient>
<linearGradient id="paint2_linear_694_2492" x1="22.8452" y1="21.1705" x2="1.34261" y2="42.0181" gradientUnits="userSpaceOnUse">
<stop stop-color="#FF3A44"/>
<stop offset="1" stop-color="#C31162"/>
</linearGradient>
<linearGradient id="paint3_linear_694_2492" x1="6.77931" y1="0.261039" x2="16.3811" y2="9.57033" gradientUnits="userSpaceOnUse">
<stop stop-color="#32A071"/>
<stop offset="0.0685" stop-color="#2DA771"/>
<stop offset="0.4762" stop-color="#15CF74"/>
<stop offset="0.8009" stop-color="#06E775"/>
<stop offset="1" stop-color="#00F076"/>
</linearGradient>
<linearGradient id="paint4_linear_694_2492" x1="31.1106" y1="19.0013" x2="8.89781" y2="19.0013" gradientUnits="userSpaceOnUse">
<stop stop-color="#CCB300"/>
<stop offset="0.4087" stop-color="#CC9700"/>
<stop offset="0.7754" stop-color="#CC8400"/>
<stop offset="1" stop-color="#CC7D00"/>
</linearGradient>
<linearGradient id="paint5_linear_694_2492" x1="22.8451" y1="21.1705" x2="1.34253" y2="42.0181" gradientUnits="userSpaceOnUse">
<stop stop-color="#CC2E36"/>
<stop offset="1" stop-color="#9C0E4E"/>
</linearGradient>
<linearGradient id="paint6_linear_694_2492" x1="20.0705" y1="8.32761" x2="4.21406" y2="23.7011" gradientUnits="userSpaceOnUse">
<stop stop-color="#008DE0"/>
<stop offset="0.00657445" stop-color="#008DE0"/>
<stop offset="0.2601" stop-color="#00A7E0"/>
<stop offset="0.5122" stop-color="#00B8E0"/>
<stop offset="0.7604" stop-color="#00C4E0"/>
<stop offset="1" stop-color="#00C7E0"/>
</linearGradient>
<linearGradient id="paint7_linear_694_2492" x1="22.8677" y1="21.1706" x2="1.36432" y2="42.0551" gradientUnits="userSpaceOnUse">
<stop stop-color="#E0333C"/>
<stop offset="1" stop-color="#AB0F56"/>
</linearGradient>
<linearGradient id="paint8_linear_694_2492" x1="31.1002" y1="19.0013" x2="8.92405" y2="19.0013" gradientUnits="userSpaceOnUse">
<stop stop-color="#E0C500"/>
<stop offset="0.4087" stop-color="#E0A600"/>
<stop offset="0.7754" stop-color="#E09100"/>
<stop offset="1" stop-color="#E08900"/>
</linearGradient>
<linearGradient id="paint9_linear_694_2492" x1="31.1003" y1="19.0013" x2="8.92418" y2="19.0013" gradientUnits="userSpaceOnUse">
<stop stop-color="#FFE840"/>
<stop offset="0.4087" stop-color="#FFCE40"/>
<stop offset="0.7754" stop-color="#FFBC40"/>
<stop offset="1" stop-color="#FFB540"/>
</linearGradient>
<linearGradient id="paint10_linear_694_2492" x1="20.0705" y1="8.32756" x2="4.21405" y2="23.7011" gradientUnits="userSpaceOnUse">
<stop stop-color="#40B8FF"/>
<stop offset="0.00657445" stop-color="#40B9FF"/>
<stop offset="0.2601" stop-color="#40CEFF"/>
<stop offset="0.5122" stop-color="#40DDFF"/>
<stop offset="0.7604" stop-color="#40E7FF"/>
<stop offset="1" stop-color="#40EAFF"/>
</linearGradient>
<linearGradient id="paint11_linear_694_2492" x1="6.77941" y1="0.261043" x2="16.3812" y2="9.57034" gradientUnits="userSpaceOnUse">
<stop stop-color="#65B895"/>
<stop offset="0.0685" stop-color="#62BD95"/>
<stop offset="0.4762" stop-color="#50DB97"/>
<stop offset="0.8009" stop-color="#44ED98"/>
<stop offset="1" stop-color="#40F498"/>
</linearGradient>
</defs>
</svg>
