<svg width="62" height="62" viewBox="0 0 62 62" fill="none" xmlns="http://www.w3.org/2000/svg">
<path d="M23.9176 25.3549C27.4336 21.7934 32.6059 20.5093 37.6765 22.2537C39.5122 22.8836 41.0609 24.095 42.4661 25.4397C43.3092 26.2453 44.4034 26.6874 45.5634 26.6874H55.4236C56.8228 26.6874 57.5284 24.9672 56.5358 23.9678L37.7722 4.96701C35.183 2.34433 30.9914 2.34433 28.4083 4.96701L6.61895 27.0448C4.46035 29.2314 4.46035 32.7747 6.61895 34.9613C8.77755 37.1479 12.2756 37.1479 14.4342 34.9613L23.9176 25.3549Z" fill="#FF6C2D"/>
<path d="M37.7718 57.033L56.4936 38.0685C57.4862 37.0631 56.7806 35.3489 55.3814 35.3489H45.1565C41.79 35.3489 38.6986 33.8105 36.2889 31.4301C34.5249 29.6917 31.7026 29.7099 29.9626 31.4725L17.6807 43.9135C17.0648 44.5374 17.0648 45.5429 17.6807 46.1667L28.4079 57.033C30.991 59.6557 35.1887 59.6557 37.7718 57.033Z" fill="#FF6C2D"/>
<path d="M45.6959 19.6372C45.2654 20.3944 44.7871 21.5634 44.6495 22.1812C44.2369 22.3689 44.0456 22.4235 43.8662 22.2357C43.8662 22.2357 43.5912 21.8904 43.3101 22.1751C43.0171 22.4719 43.3759 22.7324 43.5194 22.8777C43.92 23.1927 44.4163 23.1382 45.7258 22.5991C45.983 22.5022 46.9935 22.0237 47.6393 21.6785C47.6393 21.6785 48.2193 21.3756 47.8366 20.9637C47.6871 20.8002 47.4061 20.8426 47.0712 21.0546C46.5271 21.3998 45.8933 21.7511 45.4926 21.9147C45.6242 21.4786 45.977 20.7699 46.3059 20.1884C46.3059 20.1884 46.7065 19.6312 46.3118 19.4131C45.8993 19.1769 45.6959 19.6372 45.6959 19.6372Z" fill="#EAF4F4"/>
<path d="M36.3914 9.1161L35.3988 10.1155L34.2209 8.92227L35.2075 7.92287C35.339 7.78961 35.339 7.57156 35.2075 7.43831L35.1118 7.3414C34.9803 7.20814 34.765 7.20814 34.6334 7.3414L32.3672 9.637C32.2357 9.77025 32.2357 9.98831 32.3672 10.1216L32.4689 10.2245C32.6004 10.3578 32.8157 10.3578 32.9472 10.2245L33.7365 9.425L34.9145 10.6182L34.1252 11.4178C33.9936 11.551 33.9936 11.7691 34.1252 11.9023L34.2209 11.9992C34.3524 12.1325 34.5677 12.1325 34.6992 11.9992L36.9655 9.70363C37.097 9.57037 37.097 9.35232 36.9655 9.21907L36.8698 9.12215C36.7382 8.98284 36.523 8.98284 36.3914 9.1161Z" fill="#EAF4F4"/>
<path d="M38.2208 11.2362C38.2089 11.224 38.173 11.1877 38.1251 11.1392C37.9936 11.006 37.7783 11.006 37.6468 11.1392C37.5152 11.2725 37.5152 11.4906 37.6468 11.6299C37.6528 11.6359 37.6528 11.6359 37.6528 11.6359C37.9936 11.9812 38.0474 12.2356 37.7245 12.5626L37.6946 12.5929L37.4973 12.393C36.6542 11.539 36.0443 11.5511 35.6317 11.963C35.2072 12.393 35.2789 13.0835 35.823 13.6347L35.9426 13.7559C36.4509 14.2707 37.1505 14.2949 37.6348 13.8043L38.167 13.2653C38.9563 12.4597 38.7351 11.751 38.2208 11.2362ZM37.0728 13.241C36.8396 13.4773 36.6004 13.4773 36.3492 13.2289C36.0981 12.9745 36.0562 12.7201 36.2356 12.5384C36.421 12.3506 36.6482 12.3688 37.0847 12.811L37.288 13.0169L37.0728 13.241Z" fill="#EAF4F4"/>
<path d="M40.6909 13.7194C39.9734 12.9926 39.1542 13.1743 38.6698 13.6649L37.5098 14.84C37.3782 14.9732 37.3782 15.1913 37.5098 15.3245L37.5995 15.4154C37.731 15.5486 37.9463 15.5486 38.0778 15.4154L39.202 14.2767C39.5309 13.9435 39.8896 13.9254 40.1348 14.1797C40.4278 14.4765 40.4278 14.8218 40.0391 15.2155L38.9568 16.3118C38.8253 16.4451 38.8253 16.6631 38.9568 16.7964L39.0465 16.8872C39.1781 17.0205 39.3933 17.0205 39.5249 16.8872L40.655 15.7425C41.3187 15.0883 41.235 14.2645 40.6909 13.7194Z" fill="#EAF4F4"/>
<path d="M43.8537 16.6813L43.3694 17.172C43.483 16.8752 43.3933 16.4633 43.1601 16.2271C42.4904 15.5487 41.6353 15.6759 40.8759 16.4391C40.2421 17.0811 40.1823 18.0866 40.7862 18.6983C41.5755 19.4979 42.3349 19.3707 43.0046 18.6923L44.4158 17.2628C44.5473 17.1296 44.5473 16.9115 44.4158 16.7783L44.3261 16.6874C44.2065 16.542 43.9913 16.542 43.8537 16.6813ZM41.3423 18.2743C41.0135 17.9412 41.0792 17.3718 41.5576 16.8873C41.9283 16.5118 42.3947 16.4148 42.6877 16.7116C42.9927 17.0205 43.0405 17.4869 42.4605 18.0745C42.0419 18.4984 41.6652 18.6014 41.3423 18.2743Z" fill="#EAF4F4"/>
<path d="M43.7817 20.691C43.6561 20.5032 43.6681 20.3457 43.8475 20.164L45.5695 18.4196C45.7011 18.2864 45.7011 18.0683 45.5695 17.9351L45.4799 17.8442C45.3483 17.7109 45.133 17.7109 45.0015 17.8442L43.2196 19.6492C42.7652 20.1095 42.7592 20.6183 43.2076 21.0908L43.381 21.2664C43.5126 21.3997 43.7219 21.3997 43.8475 21.2664L43.8534 21.2604C43.979 21.1332 43.985 20.9272 43.8594 20.794C43.8235 20.7395 43.7936 20.7031 43.7817 20.691Z" fill="#EAF4F4"/>
</svg>
